<?xml version="1.0" standalone="no"?>
<!DOCTYPE svg PUBLIC "-//W3C//DTD SVG 20010904//EN"
 "http://www.w3.org/TR/2001/REC-SVG-20010904/DTD/svg10.dtd">
<svg version="1.0" xmlns="http://www.w3.org/2000/svg"
 width="200.000000pt" height="200.000000pt" viewBox="0 0 200.000000 200.000000"
 preserveAspectRatio="xMidYMid meet">
<metadata>
Created by potrace 1.11, written by Peter Selinger 2001-2013
</metadata>
<g transform="translate(0.000000,200.000000) scale(0.100000,-0.100000)"
fill="#000000" stroke="none">
<path d="M193 1638 c-118 -49 -122 -20 57 -486 159 -413 183 -469 222 -514 19
-22 181 -138 192 -138 2 0 57 -32 122 -70 65 -39 136 -76 159 -82 61 -18 174
-14 234 7 96 35 134 82 342 425 106 173 234 384 285 469 52 84 94 162 94 173
0 32 -17 55 -64 82 -52 30 -86 33 -114 9 -15 -14 -151 -225 -172 -268 -23 -48
-272 -419 -293 -437 -24 -21 -77 -32 -109 -23 -49 15 -127 69 -139 97 -9 21
-16 27 -28 22 -63 -29 -142 -8 -216 57 -29 26 -35 38 -35 70 l0 39 -49 0 c-39
0 -59 7 -96 33 -53 36 -60 47 -114 182 -143 363 -142 360 -178 372 -22 8 -42
4 -100 -19z"/>
<path d="M778 1548 c-16 -13 -184 -245 -218 -301 -27 -44 -7 -83 62 -118 79
-40 85 -36 206 134 60 84 114 162 119 172 18 36 -5 72 -69 105 -44 23 -77 26
-100 8z"/>
<path d="M1059 1477 c-37 -29 -283 -398 -285 -429 -2 -32 29 -68 80 -92 61
-29 89 -19 133 46 16 24 77 113 136 200 69 101 107 166 107 183 0 30 -39 70
-89 91 -41 17 -61 17 -82 1z"/>
<path d="M1341 1378 c-27 -9 -25 -7 -125 -153 -156 -227 -176 -259 -176 -286
0 -32 26 -60 82 -88 64 -31 83 -18 174 117 44 64 81 119 84 122 3 3 29 41 58
85 70 106 68 137 -8 181 -51 30 -62 32 -89 22z"/>
</g>
</svg>
